<svg width="190" height="95" viewBox="0 0 190 95" fill="none" xmlns="http://www.w3.org/2000/svg">
<path d="M6.95362e-06 95C5.86297e-06 82.5244 2.45725 70.171 7.23145 58.6451C12.0056 47.1191 19.0033 36.6464 27.8249 27.8249C36.6464 19.0033 47.1191 12.0056 58.6451 7.23144C70.171 2.45724 82.5244 -5.86298e-06 95 -6.95363e-06C107.476 -8.04428e-06 119.829 2.45724 131.355 7.23144C142.881 12.0056 153.354 19.0033 162.175 27.8248C170.997 36.6464 177.994 47.1191 182.769 58.6451C187.543 70.171 190 82.5244 190 95L95 95L6.95362e-06 95Z" fill="white"/>
</svg>
