<svg width="108" height="54" viewBox="0 0 108 54" fill="none" xmlns="http://www.w3.org/2000/svg">
<path d="M2.90856e-06 54C2.28862e-06 46.9086 1.39675 39.8867 4.11051 33.3351C6.82426 26.7835 10.8019 20.8306 15.8162 15.8162C20.8306 10.8019 26.7835 6.82426 33.3351 4.1105C39.8867 1.39675 46.9086 -2.28862e-06 54 -2.90857e-06C61.0914 -3.52851e-06 68.1133 1.39675 74.6649 4.1105C81.2165 6.82426 87.1694 10.8019 92.1838 15.8162C97.1981 20.8306 101.176 26.7835 103.889 33.3351C106.603 39.8867 108 46.9086 108 54L54 54L2.90856e-06 54Z" fill="#EFF6FE"/>
</svg>
