<svg width="20" height="20" viewBox="0 0 20 20" fill="none" xmlns="http://www.w3.org/2000/svg">
<path d="M4.79167 2.5C4.64609 2.50008 4.50308 2.53828 4.37686 2.61082C4.25065 2.68335 4.14563 2.78768 4.07227 2.91341L2.61393 5.41341C2.53944 5.54083 2.50012 5.68574 2.5 5.83333V15.8333C2.5 16.7442 3.25578 17.5 4.16667 17.5H15.8333C16.7442 17.5 17.5 16.7442 17.5 15.8333V5.83333C17.4999 5.68574 17.4606 5.54083 17.3861 5.41341L15.9277 2.91341C15.8544 2.78768 15.7494 2.68335 15.6231 2.61082C15.4969 2.53828 15.3539 2.50008 15.2083 2.5H4.79167ZM5.27018 4.16667H14.7298L15.7015 5.83333H4.2985L5.27018 4.16667ZM4.16667 7.5H15.8333V15.8333H4.16667V7.5ZM9.16667 9.16667V11.6667H6.66667L10 15L13.3333 11.6667H10.8333V9.16667H9.16667Z" fill="white"/>
</svg>
